{
	"asset":{
		"generator":"Khronos glTF Blender I/O v3.6.28",
		"version":"2.0"
	},
	"scene":0,
	"scenes":[
		{
			"name":"Scene",
			"nodes":[
				0,
				1,
				2,
				3,
				4,
				5,
				6
			]
		}
	],
	"nodes":[
		{
			"mesh":0,
			"name":"Body_lowpoly"
		},
		{
			"mesh":1,
			"name":"Stock_lowpoly"
		},
		{
			"mesh":2,
			"name":"Barrel_lowpoly"
		},
		{
			"mesh":3,
			"name":"ForendSlider_lowpoly"
		},
		{
			"mesh":4,
			"name":"Trigger_lowpoly"
		},
		{
			"mesh":5,
			"name":"Forend_lowpoly"
		},
		{
			"mesh":6,
			"name":"Plane",
			"rotation":[
				0,
				-0.9883777499198914,
				0,
				0.15201783180236816
			]
		}
	],
	"materials":[
		{
			"doubleSided":true,
			"name":"ShotgunMaterial",
			"pbrMetallicRoughness":{}
		},
		{
			"doubleSided":true,
			"name":"Material",
			"pbrMetallicRoughness":{
				"baseColorFactor":[
					0.12988629937171936,
					0.12988629937171936,
					0.12988629937171936,
					1
				],
				"metallicFactor":0,
				"roughnessFactor":0.5
			}
		}
	],
	"meshes":[
		{
			"name":"Cube.073",
			"primitives":[
				{
					"attributes":{
						"POSITION":0,
						"NORMAL":1,
						"TEXCOORD_0":2
					},
					"indices":3,
					"material":0
				}
			]
		},
		{
			"name":"Slice.026",
			"primitives":[
				{
					"attributes":{
						"POSITION":4,
						"NORMAL":5,
						"TEXCOORD_0":6
					},
					"indices":7,
					"material":0
				}
			]
		},
		{
			"name":"Cylinder.043",
			"primitives":[
				{
					"attributes":{
						"POSITION":8,
						"NORMAL":9,
						"TEXCOORD_0":10
					},
					"indices":11,
					"material":0
				}
			]
		},
		{
			"name":"Plane.013",
			"primitives":[
				{
					"attributes":{
						"POSITION":12,
						"NORMAL":13,
						"TEXCOORD_0":14
					},
					"indices":15,
					"material":0
				}
			]
		},
		{
			"name":"Cube.077",
			"primitives":[
				{
					"attributes":{
						"POSITION":16,
						"NORMAL":17,
						"TEXCOORD_0":18
					},
					"indices":19,
					"material":0
				}
			]
		},
		{
			"name":"Cylinder.045",
			"primitives":[
				{
					"attributes":{
						"POSITION":20,
						"NORMAL":21,
						"TEXCOORD_0":22
					},
					"indices":23,
					"material":0
				}
			]
		},
		{
			"name":"Plane",
			"primitives":[
				{
					"attributes":{
						"POSITION":24,
						"NORMAL":25,
						"TEXCOORD_0":26
					},
					"indices":27,
					"material":1
				}
			]
		}
	],
	"accessors":[
		{
			"bufferView":0,
			"componentType":5126,
			"count":3195,
			"max":[
				0.004914680030196905,
				0.21542371809482574,
				0.01737396977841854
			],
			"min":[
				-0.1522282063961029,
				0.14024615287780762,
				-0.01737396977841854
			],
			"type":"VEC3"
		},
		{
			"bufferView":1,
			"componentType":5126,
			"count":3195,
			"type":"VEC3"
		},
		{
			"bufferView":2,
			"componentType":5126,
			"count":3195,
			"type":"VEC2"
		},
		{
			"bufferView":3,
			"componentType":5123,
			"count":9720,
			"type":"SCALAR"
		},
		{
			"bufferView":4,
			"componentType":5126,
			"count":1294,
			"max":[
				-0.14190179109573364,
				0.21103118360042572,
				0.016567537561058998
			],
			"min":[
				-0.44631102681159973,
				0.06527633219957352,
				-0.016567593440413475
			],
			"type":"VEC3"
		},
		{
			"bufferView":5,
			"componentType":5126,
			"count":1294,
			"type":"VEC3"
		},
		{
			"bufferView":6,
			"componentType":5126,
			"count":1294,
			"type":"VEC2"
		},
		{
			"bufferView":7,
			"componentType":5123,
			"count":4536,
			"type":"SCALAR"
		},
		{
			"bufferView":8,
			"componentType":5126,
			"count":1268,
			"max":[
				0.4474419057369232,
				0.21848200261592865,
				0.013897009193897247
			],
			"min":[
				0.0020398348569869995,
				0.1523897647857666,
				-0.013896990567445755
			],
			"type":"VEC3"
		},
		{
			"bufferView":9,
			"componentType":5126,
			"count":1268,
			"type":"VEC3"
		},
		{
			"bufferView":10,
			"componentType":5126,
			"count":1268,
			"type":"VEC2"
		},
		{
			"bufferView":11,
			"componentType":5123,
			"count":2970,
			"type":"SCALAR"
		},
		{
			"bufferView":12,
			"componentType":5126,
			"count":114,
			"max":[
				0.10571044683456421,
				0.19164949655532837,
				-0.01170441135764122
			],
			"min":[
				-0.0006731972098350525,
				0.17066968977451324,
				-0.01478315144777298
			],
			"type":"VEC3"
		},
		{
			"bufferView":13,
			"componentType":5126,
			"count":114,
			"type":"VEC3"
		},
		{
			"bufferView":14,
			"componentType":5126,
			"count":114,
			"type":"VEC2"
		},
		{
			"bufferView":15,
			"componentType":5123,
			"count":264,
			"type":"SCALAR"
		},
		{
			"bufferView":16,
			"componentType":5126,
			"count":170,
			"max":[
				-0.1081995964050293,
				0.1651674509048462,
				0.0035753045231103897
			],
			"min":[
				-0.13404357433319092,
				0.1452082097530365,
				-0.0033479484263807535
			],
			"type":"VEC3"
		},
		{
			"bufferView":17,
			"componentType":5126,
			"count":170,
			"type":"VEC3"
		},
		{
			"bufferView":18,
			"componentType":5126,
			"count":170,
			"type":"VEC2"
		},
		{
			"bufferView":19,
			"componentType":5123,
			"count":462,
			"type":"SCALAR"
		},
		{
			"bufferView":20,
			"componentType":5126,
			"count":3262,
			"max":[
				0.2360060065984726,
				0.19075970351696014,
				0.01924632489681244
			],
			"min":[
				0.10095454752445221,
				0.15452653169631958,
				-0.019246302545070648
			],
			"type":"VEC3"
		},
		{
			"bufferView":21,
			"componentType":5126,
			"count":3262,
			"type":"VEC3"
		},
		{
			"bufferView":22,
			"componentType":5126,
			"count":3262,
			"type":"VEC2"
		},
		{
			"bufferView":23,
			"componentType":5123,
			"count":7929,
			"type":"SCALAR"
		},
		{
			"bufferView":24,
			"componentType":5126,
			"count":44,
			"max":[
				1.7963192462921143,
				2,
				1
			],
			"min":[
				-1.7963192462921143,
				0,
				-1
			],
			"type":"VEC3"
		},
		{
			"bufferView":25,
			"componentType":5126,
			"count":44,
			"type":"VEC3"
		},
		{
			"bufferView":26,
			"componentType":5126,
			"count":44,
			"type":"VEC2"
		},
		{
			"bufferView":27,
			"componentType":5123,
			"count":126,
			"type":"SCALAR"
		}
	],
	"bufferViews":[
		{
			"buffer":0,
			"byteLength":38340,
			"byteOffset":0,
			"target":34962
		},
		{
			"buffer":0,
			"byteLength":38340,
			"byteOffset":38340,
			"target":34962
		},
		{
			"buffer":0,
			"byteLength":25560,
			"byteOffset":76680,
			"target":34962
		},
		{
			"buffer":0,
			"byteLength":19440,
			"byteOffset":102240,
			"target":34963
		},
		{
			"buffer":0,
			"byteLength":15528,
			"byteOffset":121680,
			"target":34962
		},
		{
			"buffer":0,
			"byteLength":15528,
			"byteOffset":137208,
			"target":34962
		},
		{
			"buffer":0,
			"byteLength":10352,
			"byteOffset":152736,
			"target":34962
		},
		{
			"buffer":0,
			"byteLength":9072,
			"byteOffset":163088,
			"target":34963
		},
		{
			"buffer":0,
			"byteLength":15216,
			"byteOffset":172160,
			"target":34962
		},
		{
			"buffer":0,
			"byteLength":15216,
			"byteOffset":187376,
			"target":34962
		},
		{
			"buffer":0,
			"byteLength":10144,
			"byteOffset":202592,
			"target":34962
		},
		{
			"buffer":0,
			"byteLength":5940,
			"byteOffset":212736,
			"target":34963
		},
		{
			"buffer":0,
			"byteLength":1368,
			"byteOffset":218676,
			"target":34962
		},
		{
			"buffer":0,
			"byteLength":1368,
			"byteOffset":220044,
			"target":34962
		},
		{
			"buffer":0,
			"byteLength":912,
			"byteOffset":221412,
			"target":34962
		},
		{
			"buffer":0,
			"byteLength":528,
			"byteOffset":222324,
			"target":34963
		},
		{
			"buffer":0,
			"byteLength":2040,
			"byteOffset":222852,
			"target":34962
		},
		{
			"buffer":0,
			"byteLength":2040,
			"byteOffset":224892,
			"target":34962
		},
		{
			"buffer":0,
			"byteLength":1360,
			"byteOffset":226932,
			"target":34962
		},
		{
			"buffer":0,
			"byteLength":924,
			"byteOffset":228292,
			"target":34963
		},
		{
			"buffer":0,
			"byteLength":39144,
			"byteOffset":229216,
			"target":34962
		},
		{
			"buffer":0,
			"byteLength":39144,
			"byteOffset":268360,
			"target":34962
		},
		{
			"buffer":0,
			"byteLength":26096,
			"byteOffset":307504,
			"target":34962
		},
		{
			"buffer":0,
			"byteLength":15858,
			"byteOffset":333600,
			"target":34963
		},
		{
			"buffer":0,
			"byteLength":528,
			"byteOffset":349460,
			"target":34962
		},
		{
			"buffer":0,
			"byteLength":528,
			"byteOffset":349988,
			"target":34962
		},
		{
			"buffer":0,
			"byteLength":352,
			"byteOffset":350516,
			"target":34962
		},
		{
			"buffer":0,
			"byteLength":252,
			"byteOffset":350868,
			"target":34963
		}
	],
	"buffers":[
		{
			"byteLength":351120,
			"uri":"data:application/octet-stream;base64,"
		}
	]
}
